<svg width="16" height="16" viewBox="0 0 16 16" fill="none" xmlns="http://www.w3.org/2000/svg">
<path d="M9.57215 6.23862L6.23862 9.57215C5.8104 9.14393 5.54688 8.55759 5.54688 7.90538C5.54688 6.60096 6.60096 5.54688 7.90538 5.54688C8.55759 5.54688 9.14393 5.8104 9.57215 6.23862Z" stroke="#1F1F1F" stroke-width="0.988201" stroke-linecap="round" stroke-linejoin="round"/>
<path d="M11.7396 3.80147C10.5867 2.93186 9.26906 2.45752 7.90535 2.45752C5.57978 2.45752 3.41233 3.82782 1.90367 6.19951C1.31075 7.12841 1.31075 8.68977 1.90367 9.61868C2.42413 10.4356 3.03022 11.1405 3.68902 11.7071" stroke="#1F1F1F" stroke-width="0.988201" stroke-linecap="round" stroke-linejoin="round"/>
<path d="M5.54688 12.8662C6.29791 13.1824 7.09506 13.3537 7.90538 13.3537C10.2309 13.3537 12.3984 11.9834 13.9071 9.61173C14.5 8.68282 14.5 7.12147 13.9071 6.19256C13.6896 5.84998 13.4525 5.52717 13.2087 5.22412" stroke="#1F1F1F" stroke-width="0.988201" stroke-linecap="round" stroke-linejoin="round"/>
<path d="M10.2187 8.3667C10.0474 9.29561 9.28975 10.0532 8.36084 10.2245" stroke="#1F1F1F" stroke-width="0.988201" stroke-linecap="round" stroke-linejoin="round"/>
<path d="M6.23911 9.57227L1.31787 14.4935" stroke="#1F1F1F" stroke-width="0.988201" stroke-linecap="round" stroke-linejoin="round"/>
<path d="M14.494 1.31787L9.57275 6.23911" stroke="#1F1F1F" stroke-width="0.988201" stroke-linecap="round" stroke-linejoin="round"/>
</svg>
