<svg width="24" height="32" viewBox="0 0 24 32" fill="none" xmlns="http://www.w3.org/2000/svg">
<path d="M7.5 30H16.5" stroke="black" stroke-width="3" stroke-linecap="round"/>
<path d="M12.0112 20.6365C16.8566 17.3147 19.3978 14.2928 20.44 11.7637C22.3969 7.01291 19.0649 4 15.7786 4C14.3764 4 12.982 4.54898 12.0112 5.74559C11.0402 4.54873 9.6463 4 8.24381 4C4.95779 4 1.62561 7.01333 3.58241 11.7637C4.62459 14.2928 7.1658 17.3147 12.0112 20.6365ZM12.0112 22.6365C11.6161 22.6365 11.2211 22.5197 10.8803 22.2861C6.1406 19.0367 3.06308 15.7529 1.73325 12.5256C0.627449 9.84119 0.776439 7.23099 2.15268 5.17563C3.46428 3.21683 5.79826 2 8.24381 2C9.61396 2 10.9159 2.38581 12.0112 3.09276C13.1065 2.38582 14.4084 2 15.7786 2C18.2243 2 20.5583 3.21678 21.8699 5.17549C23.2461 7.23077 23.395 9.84102 22.2892 12.5254C20.9593 15.7529 17.8818 19.0367 13.1421 22.2861C12.8013 22.5197 12.4062 22.6365 12.0112 22.6365Z" fill="black"/>
</svg>
